<?xml version="1.0" encoding="utf-8"?>
<!-- Generator: Adobe Illustrator 26.0.1, SVG Export Plug-In . SVG Version: 6.00 Build 0)  -->
<svg version="1.1" id="Слой_1" xmlns="http://www.w3.org/2000/svg" xmlns:xlink="http://www.w3.org/1999/xlink" x="0px" y="0px"
	 viewBox="0 0 224.18 29.7" style="enable-background:new 0 0 224.18 29.7;" xml:space="preserve">
<style type="text/css">
	.st0{fill:#E02B30;}
	.st1{fill:#FFFFFF;}
</style>
<g>
	<g>
		<polygon class="st0" points="2.45,10.27 1.54,18.69 20.41,18.69 21.32,10.27 		"/>
		<polygon class="st0" points="203.77,10.27 202.86,18.69 221.73,18.69 222.64,10.27 		"/>
		<polygon class="st1" points="144.47,0.2 132.42,14.24 123.89,0.2 112.39,0.2 109.21,29.49 120.71,29.49 122.36,14.3 130.95,28.44 
			142.91,14.5 141.29,29.49 152.79,29.49 155.97,0.2 		"/>
		<polygon class="st1" points="186.85,0.2 172.09,15.5 173.75,0.2 162.25,0.2 159.07,29.49 170.57,29.49 185.34,14.1 183.67,29.49 
			195.18,29.49 198.36,0.2 		"/>
		<polygon class="st1" points="53.65,0.2 52.56,10.27 39.45,10.27 40.54,0.2 29.04,0.2 25.86,29.49 37.36,29.49 38.53,18.69 
			51.64,18.69 50.47,29.49 61.98,29.49 65.16,0.2 		"/>
		<g>
			<polygon class="st1" points="95.34,0.2 82.52,0.2 77.5,8.96 86.83,8.96 89.95,17.95 89.95,17.95 72.34,17.95 65.72,29.49 
				77.27,29.49 80.06,24.63 92.26,24.63 93.94,29.49 105.5,29.49 			"/>
		</g>
	</g>
</g>
</svg>
